<svg width="29" height="33" viewBox="0 0 29 33" fill="none" xmlns="http://www.w3.org/2000/svg">
<mask id="mask0_36_80" style="mask-type:luminance" maskUnits="userSpaceOnUse" x="0" y="0" width="29" height="32">
<path d="M0.015625 0H28.0156V31.6918H0.015625V0Z" fill="white"/>
</mask>
<g mask="url(#mask0_36_80)">
<path d="M18.0766 9.75321L17.7583 9.8947L18.9343 12.5121L18.0855 10.6242C18.0766 10.6242 18.0634 10.6242 18.0501 10.6242C17.1658 9.20055 15.3443 8.61694 13.7747 9.32435L13.2088 9.58078C13.2088 9.58078 14.9817 13.5334 15.0348 13.6484C15.1011 13.8031 13.4696 10.1644 13.6111 10.4739C12.8993 8.89106 11.0468 8.18808 9.46838 8.8999L8.65928 9.26245L11.2369 15.019L5.57322 2.39177C5.02941 1.1715 3.60133 0.62768 2.38548 1.17592C1.16962 1.72416 0.625805 3.15665 1.17404 4.37693L8.36305 20.3997C1.80629 18.6046 1.81955 19.5994 1.16962 20.6959C0.488746 21.841 0.860133 23.3266 2.00525 24.0119L12.1477 30.0823C13.4166 30.8427 15.2912 32.3814 20.1325 30.1972L23.2672 28.7824C26.6539 27.2571 28.1572 23.247 26.623 19.8249L26.3798 19.2811L24.2974 14.6387L22.9312 11.6013C22.1 9.74437 19.9247 8.91759 18.0766 9.75321Z" fill="white"/>
</g>
<mask id="mask1_36_80" style="mask-type:luminance" maskUnits="userSpaceOnUse" x="0" y="0" width="29" height="33">
<path d="M0.015625 0H28.0156V32.8236H0.015625V0Z" fill="white"/>
</mask>
<g mask="url(#mask1_36_80)">
<path d="M2.33234 20.0859C2.05822 20.2097 1.94326 20.4175 1.77083 20.7314C1.72662 20.811 1.68241 20.8906 1.63377 20.9746C1.37734 21.4035 1.30218 21.9075 1.42597 22.3938C1.54535 22.8802 1.85042 23.2913 2.27928 23.5478L12.4261 29.6182C12.5146 29.6713 12.603 29.7287 12.6958 29.7862C13.9426 30.5599 15.6537 31.6255 19.9114 29.7066L23.0461 28.2918C26.1586 26.8858 27.5425 23.1896 26.1321 20.0461L22.4403 11.8225C21.7595 10.3016 20.0086 9.58978 18.4745 10.1734L19.425 12.2912C19.5444 12.5609 19.425 12.8836 19.1553 13.003C18.8812 13.1268 18.5629 13.0074 18.4435 12.7333L17.6654 11.0002C17.6388 10.9736 17.6123 10.9427 17.5946 10.9117C16.843 9.70031 15.2955 9.23165 13.9957 9.81526L13.9205 9.85063L15.5255 13.4319C15.6492 13.7016 15.5255 14.0243 15.2558 14.1437C14.9861 14.2675 14.6677 14.1481 14.5439 13.874L13.1203 10.6951C12.5322 9.39082 10.9936 8.80279 9.68936 9.39082L9.37102 9.53672L11.7276 14.7936C11.8514 15.0677 11.732 15.3861 11.4579 15.5099C11.1882 15.6337 10.8698 15.5099 10.746 15.2402L5.08238 2.61299C4.65793 1.66683 3.54819 1.24681 2.60646 1.67125C1.66472 2.0957 1.24028 3.20986 1.66472 4.15602L8.85373 20.1788C8.93774 20.3689 8.90679 20.5899 8.76973 20.7491C8.63709 20.9083 8.42045 20.9746 8.22149 20.9215C5.51566 20.1788 3.74715 19.8693 2.80984 19.971C2.60646 19.9931 2.45171 20.0329 2.33234 20.0859ZM23.4882 29.2778L20.3535 30.6882C15.5741 32.8457 13.4165 31.5061 12.1255 30.7014C12.0415 30.6484 11.9531 30.5953 11.8735 30.5467L1.73104 24.4762C1.05459 24.0695 0.572665 23.424 0.38255 22.6591C0.188013 21.8942 0.302967 21.0984 0.709725 20.4175C0.749516 20.3468 0.789308 20.276 0.8291 20.2053C1.58956 18.8347 2.48708 18.3351 7.40797 19.5863L0.683197 4.59814C0.0155836 3.10817 0.678775 1.35292 2.16433 0.685306C3.64988 0.0176915 5.39629 0.680884 6.0639 2.17086L8.9289 8.55077L9.24723 8.40487C10.6001 7.79473 12.1299 8.0777 13.1778 9.00174L13.5536 8.83374C14.9286 8.21033 16.5114 8.4535 17.6388 9.35987L17.8555 9.25818C19.9733 8.30318 22.4713 9.25376 23.4219 11.3804L27.1136 19.604C28.7672 23.2913 27.1402 27.6286 23.4882 29.2778Z" fill="#1D1D1B"/>
</g>
</svg>
